<svg width="128" height="128" viewBox="0 0 128 128" fill="none" xmlns="http://www.w3.org/2000/svg">
<rect width="128" height="128" fill="black"/>
<g filter="url(#filter0_d_1_2)">
<path d="M37.6434 56.7L29.7234 52.4L30.0434 50.4L39.3234 46.1L39.0434 47.96L32.3634 51C32.0968 51.12 31.8434 51.2267 31.6034 51.32C31.3768 51.4 31.2101 51.4533 31.1034 51.48C31.2101 51.5067 31.3701 51.5667 31.5834 51.66C31.7968 51.74 32.0101 51.84 32.2234 51.96L37.9434 55.02L37.6434 56.7ZM44.2356 58L46.2956 45.02H42.2956L42.5556 43.38H52.3556L52.0956 45.02H48.0956L46.0356 58H44.2356ZM52.9678 58L55.2878 43.4H57.0878L56.5078 47L56.1678 49.1H56.5478L56.1078 49.52C56.2545 48.6533 56.6211 47.9867 57.2078 47.52C57.8078 47.04 58.5678 46.8 59.4878 46.8C60.5945 46.8 61.4211 47.14 61.9678 47.82C62.5145 48.5 62.6945 49.4267 62.5078 50.6L61.3278 58H59.5278L60.6678 50.8C60.7878 50.0133 60.6745 49.4067 60.3278 48.98C59.9811 48.54 59.4478 48.32 58.7278 48.32C57.9811 48.32 57.3545 48.5533 56.8478 49.02C56.3411 49.4867 56.0145 50.1467 55.8678 51L54.7678 58H52.9678ZM64.72 58L64.98 56.36H68.88L70.1 48.64H66.7L66.96 47H72.16L70.68 56.36H74.38L74.12 58H64.72ZM71.48 45.02C71.04 45.02 70.7133 44.9067 70.5 44.68C70.2867 44.4533 70.2067 44.1467 70.26 43.76C70.3267 43.36 70.5 43.0467 70.78 42.82C71.0733 42.58 71.44 42.46 71.88 42.46C72.32 42.46 72.6467 42.58 72.86 42.82C73.0867 43.0467 73.1667 43.36 73.1 43.76C73.0467 44.1467 72.8733 44.4533 72.58 44.68C72.2867 44.9067 71.92 45.02 71.48 45.02ZM76.9522 58L78.6922 47H80.4922L80.1522 49.1H80.5322L80.0922 49.52C80.2389 48.6533 80.6055 47.9867 81.1922 47.52C81.7922 47.04 82.5522 46.8 83.4722 46.8C84.5789 46.8 85.4055 47.14 85.9522 47.82C86.4989 48.5 86.6789 49.4267 86.4922 50.6L85.3122 58H83.5122L84.6522 50.8C84.7722 50.0133 84.6589 49.4067 84.3122 48.98C83.9655 48.54 83.4322 48.32 82.7122 48.32C81.9655 48.32 81.3389 48.5533 80.8322 49.02C80.3255 49.4867 79.9989 50.1467 79.8522 51L78.7522 58H76.9522ZM89.7844 61.6L90.0444 59.96H93.5444C94.1044 59.96 94.531 59.8333 94.8244 59.58C95.131 59.3267 95.331 58.9333 95.4244 58.4L95.6444 57L96.0044 55H95.6444L96.0244 54.7C95.891 55.5 95.5244 56.1333 94.9244 56.6C94.3244 57.0667 93.5777 57.3 92.6844 57.3C91.551 57.3 90.711 56.9333 90.1644 56.2C89.631 55.4533 89.4644 54.4533 89.6644 53.2L90.0244 50.88C90.1577 50.04 90.4177 49.32 90.8044 48.72C91.2044 48.1067 91.7044 47.6333 92.3044 47.3C92.9177 46.9667 93.5977 46.8 94.3444 46.8C95.2377 46.8 95.911 47.0333 96.3644 47.5C96.831 47.9667 96.9977 48.6 96.8644 49.4L96.5644 49.1H96.9044L97.2444 47H99.0244L97.2244 58.4C97.0644 59.3867 96.631 60.1667 95.9244 60.74C95.231 61.3133 94.3444 61.6 93.2644 61.6H89.7844ZM93.4644 55.74C94.211 55.74 94.831 55.5067 95.3244 55.04C95.831 54.5733 96.151 53.9267 96.2844 53.1L96.6044 51C96.751 50.1733 96.6444 49.5267 96.2844 49.06C95.9244 48.5933 95.371 48.36 94.6244 48.36C93.8644 48.36 93.2377 48.5867 92.7444 49.04C92.2644 49.4933 91.951 50.1467 91.8044 51L91.4844 53.1C91.351 53.9533 91.4577 54.6067 91.8044 55.06C92.151 55.5133 92.7044 55.74 93.4644 55.74ZM40.9756 84L43.2956 69.4H47.0756C48.0223 69.4 48.809 69.58 49.4356 69.94C50.0756 70.3 50.529 70.8067 50.7956 71.46C51.0756 72.1133 51.1423 72.8867 50.9956 73.78L50.0756 79.6C49.9423 80.4933 49.629 81.2733 49.1356 81.94C48.6556 82.5933 48.0423 83.1 47.2956 83.46C46.549 83.82 45.7023 84 44.7556 84H40.9756ZM43.0356 82.4H45.0156C45.8956 82.4 46.6223 82.1533 47.1956 81.66C47.7823 81.1667 48.1423 80.48 48.2756 79.6L49.1956 73.78C49.3423 72.9133 49.2023 72.2333 48.7756 71.74C48.349 71.2467 47.6956 71 46.8156 71H44.8356L43.0356 82.4ZM57.0878 84.2C56.2211 84.2 55.5011 84.0267 54.9278 83.68C54.3545 83.3333 53.9411 82.8467 53.6878 82.22C53.4478 81.58 53.3945 80.84 53.5278 80L53.9878 77C54.1345 76.1467 54.4278 75.4067 54.8678 74.78C55.3211 74.1533 55.8878 73.6667 56.5678 73.32C57.2611 72.9733 58.0411 72.8 58.9078 72.8C59.7745 72.8 60.4945 72.9733 61.0678 73.32C61.6545 73.6667 62.0678 74.1533 62.3078 74.78C62.5611 75.4067 62.6145 76.1467 62.4678 77L62.1678 78.94H55.4478L55.2878 80C55.1545 80.8667 55.2545 81.5333 55.5878 82C55.9345 82.4533 56.5145 82.68 57.3278 82.68C58.0211 82.68 58.5878 82.56 59.0278 82.32C59.4811 82.0667 59.7945 81.6933 59.9678 81.2H61.7678C61.5945 81.8133 61.2878 82.3467 60.8478 82.8C60.4078 83.24 59.8611 83.5867 59.2078 83.84C58.5678 84.08 57.8611 84.2 57.0878 84.2ZM60.6078 77.74L60.7078 77C60.8545 76.1333 60.7545 75.4667 60.4078 75C60.0745 74.5333 59.4945 74.3 58.6678 74.3C57.8545 74.3 57.2011 74.5333 56.7078 75C56.2145 75.4667 55.8945 76.1333 55.7478 77L55.6678 77.58H60.7678L60.6078 77.74ZM67.9 84L66.06 73H67.84L69.02 80.4C69.0867 80.84 69.1467 81.2667 69.2 81.68C69.2533 82.08 69.2933 82.3933 69.32 82.62C69.4133 82.3933 69.5533 82.08 69.74 81.68C69.9267 81.2667 70.1267 80.84 70.34 80.4L73.78 73H75.66L70.34 84H67.9ZM77.0122 82.7L77.2922 80.88L83.9722 77.84C84.2389 77.72 84.4855 77.62 84.7122 77.54C84.9522 77.4467 85.1322 77.3867 85.2522 77.36C85.1322 77.3333 84.9655 77.28 84.7522 77.2C84.5522 77.1067 84.3455 77 84.1322 76.88L78.4122 73.82L78.6922 72.1L86.6122 76.4L86.2922 78.4L77.0122 82.7Z" fill="white"/>
</g>
<defs>
<filter id="filter0_d_1_2" x="28.7234" y="42.46" width="71.3009" height="43.74" filterUnits="userSpaceOnUse" color-interpolation-filters="sRGB">
<feFlood flood-opacity="0" result="BackgroundImageFix"/>
<feColorMatrix in="SourceAlpha" type="matrix" values="0 0 0 0 0 0 0 0 0 0 0 0 0 0 0 0 0 0 127 0" result="hardAlpha"/>
<feOffset dy="1"/>
<feGaussianBlur stdDeviation="0.5"/>
<feComposite in2="hardAlpha" operator="out"/>
<feColorMatrix type="matrix" values="0 0 0 0 0.833333 0 0 0 0 0.833333 0 0 0 0 0.833333 0 0 0 0.25 0"/>
<feBlend mode="normal" in2="BackgroundImageFix" result="effect1_dropShadow_1_2"/>
<feBlend mode="normal" in="SourceGraphic" in2="effect1_dropShadow_1_2" result="shape"/>
</filter>
</defs>
</svg>
